PathFileType	4	(X/Y/Z)	Kaydara																																																																																																																									
DataRate	CameraRate	NumFrames	NumMarkers	Units	OrigDataRate	OrigDataStartFrame	OrigNumFrames																																																																																																																					
30	30	4	41	mm	30	16	147																																																																																																																					
Frame#	Time	PAIB_LFHD			PAIB_RFHD			PAIB_LBHD			PAIB_RBHD			PAIB_LFTShould			PAIB_RFTShould			PAIB_LRRShould			PAIB_RRRShould			PAIB_T10			PAIB_STRN			PAIB_TRUN			PAIB_LSHO			PAIB_LUPA			PAIB_LELB			PAIB_LFRM			PAIB_LWRA			PAIB_LWRB			PAIB_LFIN			PAIB_RSHO			PAIB_RUPA			PAIB_RELB			PAIB_RFRM			PAIB_RWRA			PAIB_RWRB			PAIB_RFIN			PAIB_LFWT			PAIB_RFWT			PAIB_LBWT			PAIB_RBWT			PAIB_LTHI			PAIB_LKNE			PAIB_LSHN			PAIB_LANK			PAIB_LHEE			PAIB_LTOE			PAIB_RTHI			PAIB_RKNE			PAIB_RSHN			PAIB_RANK			PAIB_RHEE			PAIB_RTOE		
		X1	Y1	Z1	X2	Y2	Z2	X3	Y3	Z3	X4	Y4	Z4	X5	Y5	Z5	X6	Y6	Z6	X7	Y7	Z7	X8	Y8	Z8	X9	Y9	Z9	X10	Y10	Z10	X11	Y11	Z11	X12	Y12	Z12	X13	Y13	Z13	X14	Y14	Z14	X15	Y15	Z15	X16	Y16	Z16	X17	Y17	Z17	X18	Y18	Z18	X19	Y19	Z19	X20	Y20	Z20	X21	Y21	Z21	X22	Y22	Z22	X23	Y23	Z23	X24	Y24	Z24	X25	Y25	Z25	X26	Y26	Z26	X27	Y27	Z27	X28	Y28	Z28	X29	Y29	Z29	X30	Y30	Z30	X31	Y31	Z31	X32	Y32	Z32	X33	Y33	Z33	X34	Y34	Z34	X35	Y35	Z35	X36	Y36	Z36	X37	Y37	Z37	X38	Y38	Z38	X39	Y39	Z39	X40	Y40	Z40	X41	Y41	Z41
																																																																																																																												
1	0.5	264.82838	1707.77756	-2023.6058	78.45296	1707.86026	-2035.50186	277.6239	1644.37057	-2136.71219	75.35001	1660.22461	-2142.24289	231.36906	1433.08807	-1990.47668	109.15025	1430.26596	-1994.12994	239.75283	1493.14056	-2139.5137	87.65033	1491.3443	-2130.24658	161.4624	1330.76614	-2209.41238	179.22441	1368.48602	-1950.24979	178.0872	1268.20679	-1923.28491	361.15429	1440.94162	-2077.13287	407.9694	1220.43091	-2069.84344	427.54074	1129.70108	-2117.17926	450.51552	1020.69687	-2063.79547	402.38392	920.36644	-1958.93082	433.2011	892.38823	-2025.05737	452.08488	864.74236	-1960.63889	-19.40002	1429.75479	-2050.14679	-83.80193	1256.35635	-2090.20233	-105.42578	1140.57297	-2092.90924	-122.40513	1010.32669	-2044.20074	-63.07615	921.77147	-1933.94257	-130.32161	900.96237	-1979.61868	-121.43888	874.31061	-1909.68811	281.33673	976.77452	-1958.68835	44.24964	978.41255	-1955.26398	214.70135	1018.29666	-2174.48975	71.83267	1021.09879	-2168.69049	260.01846	742.0694	-2160.9758	309.39285	498.64929	-2064.25568	286.80639	307.56729	-2068.68729	285.24542	130.16829	-2172.29248	228.04785	123.36103	-2216.82037	278.00175	74.69236	-2000.74554	15.623	721.71791	-2148.86719	5.09021	484.45522	-2056.48346	58.85189	296.58978	-2056.51001	26.94975	104.72651	-2163.71704	93.78408	114.14602	-2208.24951	35.92366	77.21172	-1988.67416
2	0.533	264.62807	1707.82654	-2024.06982	78.33089	1707.85324	-2035.98465	277.24409	1644.25583	-2136.92856	75.24441	1660.07156	-2142.67654	231.1768	1432.97211	-1990.85846	108.9277	1430.21744	-1994.62387	239.77434	1493.03482	-2139.65958	87.63597	1491.37558	-2130.69901	161.45283	1330.78201	-2209.83902	178.96049	1368.36868	-1950.62485	177.91216	1268.09212	-1923.69263	360.60429	1440.98053	-2079.19739	407.41154	1220.08118	-2070.50156	426.80592	1129.32465	-2117.60239	449.28623	1020.01541	-2064.69116	400.43583	919.04091	-1960.72098	431.41621	891.50589	-2026.73233	449.88132	863.40157	-1962.38831	-19.47013	1429.82315	-2050.58075	-83.93957	1256.35864	-2090.3331	-105.80919	1140.75157	-2093.10318	-122.88177	1010.49614	-2044.08707	-63.99631	921.96495	-1933.69858	-131.05823	901.22421	-1979.31168	-122.26387	874.70299	-1909.44733	281.21082	976.85341	-1958.9209	44.15455	978.41492	-1955.74158	214.59957	1018.34526	-2174.76074	71.79574	1020.97031	-2169.09775	259.95136	742.19398	-2161.44958	309.37386	498.80039	-2064.6991	286.88698	307.6869	-2068.95569	285.30823	130.25836	-2172.28806	228.07568	123.24192	-2216.8927	277.99938	74.7011	-2000.78812	15.53691	721.56647	-2149.1011	5.09506	484.31728	-2056.18835	58.94961	296.44278	-2056.36917	27.18606	104.70346	-2163.60855	93.82234	114.14366	-2208.26859	35.99037	77.26614	-1988.69003
3	0.567	264.50165	1707.78717	-2024.26239	78.1738	1707.7951	-2036.38153	277.38962	1644.17908	-2137.17758	75.18809	1660.03311	-2143.12698	230.81907	1432.69516	-1991.091	108.53765	1430.09964	-1995.25696	239.71462	1492.9007	-2139.89822	87.523	1491.3562	-2131.1232	161.38863	1330.70251	-2210.18158	178.65566	1368.30292	-1950.96161	177.63994	1268.07076	-1924.01016	360.82649	1440.4483	-2076.79245	406.75026	1219.45267	-2070.23514	426.35197	1129.08058	-2117.98935	448.41068	1019.45953	-2065.57861	398.56049	917.85416	-1962.61978	430.20351	890.77782	-2028.62152	448.04874	862.13577	-1964.26834	-19.64658	1429.75403	-2051.02539	-84.12524	1256.33942	-2090.64423	-106.07302	1140.73059	-2093.20786	-123.64079	1010.77789	-2044.3837	-64.93245	922.08992	-1933.55255	-132.06384	901.41884	-1979.32053	-123.60173	874.98154	-1909.46426	280.98618	976.78246	-1959.06326	43.91876	978.30482	-1956.34933	214.59688	1018.26439	-2174.9379	71.79144	1020.82405	-2169.56863	259.99531	742.19849	-2161.76331	309.4072	498.73142	-2065.15244	286.90813	307.64177	-2069.12598	285.3129	130.03786	-2172.52869	228.03129	123.13278	-2216.95694	277.99778	74.70067	-2000.85114	15.48475	721.10878	-2149.0007	5.10107	484.14097	-2055.51331	59.1009	296.23743	-2055.84274	27.4166	104.71441	-2163.28888	93.90729	114.19118	-2208.11035	36.04525	77.25079	-1988.57086
4	0.6	264.3461	1707.73376	-2024.33136	77.99341	1707.72247	-2036.70868	277.10459	1644.08661	-2137.07977	75.14607	1660.09491	-2143.57452	230.47878	1432.68387	-1991.40961	108.14676	1429.9968	-1995.87006	239.54124	1492.8273	-2140.16724	87.3481	1491.19461	-2131.60202	161.35004	1330.57892	-2210.47897	178.22414	1368.19656	-1951.35895	177.20814	1267.92847	-1924.35257	360.54008	1440.29648	-2077.12234	406.34892	1219.28322	-2070.54001	426.06068	1128.96019	-2118.48175	447.83943	1019.11659	-2066.63971	397.51617	916.76529	-1964.6077	429.49123	890.15701	-2030.5397	446.81408	860.99113	-1966.22406	-19.90205	1429.66537	-2051.62888	-84.447	1256.27579	-2091.17401	-106.57135	1140.74547	-2093.73779	-124.39203	1010.61234	-2044.69604	-66.21831	922.08687	-1933.7886	-133.28319	901.55228	-1979.81003	-125.15621	875.17387	-1909.88525	280.74032	976.88568	-1959.11957	43.64761	978.40027	-1956.44089	214.51031	1018.15666	-2175.10956	71.74722	1020.67055	-2169.85794	260.11715	742.08694	-2161.76544	309.3898	498.65936	-2064.97879	286.8388	307.57788	-2068.95782	285.29358	130.10233	-2172.41867	228.02649	123.17965	-2216.88675	277.97333	74.68912	-2000.81741	15.54988	720.96207	-2149.03488	5.13688	483.98853	-2055.31326	59.14478	296.10565	-2055.70526	27.53645	104.63855	-2163.28934	93.99347	114.21113	-2208.05252	36.10134	77.22678	-1988.57391
